<svg width="24" height="24" viewBox="0 0 24 24" fill="none" xmlns="http://www.w3.org/2000/svg">
<path fill-rule="evenodd" clip-rule="evenodd" d="M19.5858 20.9999C19.9763 21.3905 20.6095 21.3904 21 20.9999C21.3905 20.6094 21.3905 19.9762 21 19.5857L18.5679 17.1536L17.1137 15.6994L15.4462 14.0319L9.96807 8.5538L8.85963 7.44535L7.29391 5.87963L4.4142 2.99992C4.02367 2.6094 3.39051 2.6094 2.99999 2.99992C2.60946 3.39045 2.60946 4.02361 2.99999 4.41414L5.4322 6.84635L6.88638 8.30054L8.55384 9.96799L14.032 15.4462L15.1405 16.5546L16.7062 18.1203L19.5858 20.9999ZM23 12C23 12 21.9997 14.5462 19.3958 16.5673L17.9684 15.1399C18.422 14.8065 18.8196 14.4522 19.1669 14.0986C19.8886 13.3637 20.3952 12.6267 20.7183 12.0784C20.734 12.0517 20.7492 12.0256 20.764 12C20.7492 11.9744 20.734 11.9483 20.7183 11.9216C20.3952 11.3733 19.8886 10.6363 19.1669 9.90142C17.7475 8.4563 15.488 7 12 7C11.2827 7 10.6173 7.06159 10.0005 7.17201L8.34094 5.51245C9.41808 5.19202 10.6336 5 12 5C20.25 5 23 12 23 12ZM16 12C16 12.3583 15.9529 12.7056 15.8645 13.036L10.964 8.13547C11.2944 8.04711 11.6417 8 12 8C14.2091 8 16 9.79086 16 12ZM4.60425 7.43262L6.03168 8.86005C5.57807 9.19351 5.18045 9.5478 4.83315 9.90142C4.11141 10.6363 3.60477 11.3733 3.28167 11.9216C3.26599 11.9483 3.25076 11.9744 3.23598 12C3.25076 12.0256 3.26599 12.0517 3.28167 12.0784C3.60477 12.6267 4.11141 13.3637 4.83315 14.0986C6.25246 15.5437 8.51196 17 12 17C12.7174 17 13.3828 16.9384 13.9996 16.828L15.6592 18.4875C14.582 18.808 13.3664 19 12 19C3.75 19 1 12 1 12C1 12 2.00032 9.45375 4.60425 7.43262ZM8.1355 10.9639L13.0361 15.8645C12.7057 15.9529 12.3583 16 12 16C9.79086 16 8 14.2091 8 12C8 11.6417 8.04712 11.2943 8.1355 10.9639Z" fill="#A5AECA"/>
</svg>
