<svg width="24" height="24" viewBox="0 0 24 24" fill="none" xmlns="http://www.w3.org/2000/svg">
<path fill-rule="evenodd" clip-rule="evenodd" d="M12 19C3.75 19 1 12 1 12C1 12 3.75 5 12 5C20.25 5 23 12 23 12C23 12 20.25 19 12 19ZM3.28167 12.0784C3.26599 12.0517 3.25076 12.0256 3.23598 12C3.25076 11.9744 3.26599 11.9483 3.28167 11.9216C3.60477 11.3733 4.11141 10.6363 4.83315 9.90142C6.25246 8.4563 8.51196 7 12 7C15.488 7 17.7475 8.4563 19.1669 9.90142C19.8886 10.6363 20.3952 11.3733 20.7183 11.9216C20.734 11.9483 20.7492 11.9744 20.764 12C20.7492 12.0256 20.734 12.0517 20.7183 12.0784C20.3952 12.6267 19.8886 13.3637 19.1669 14.0986C17.7475 15.5437 15.488 17 12 17C8.51196 17 6.25246 15.5437 4.83315 14.0986C4.11141 13.3637 3.60477 12.6267 3.28167 12.0784ZM12 16C14.2091 16 16 14.2091 16 12C16 9.79086 14.2091 8 12 8C9.79086 8 8 9.79086 8 12C8 14.2091 9.79086 16 12 16Z" fill="#A5AECA"/>
</svg>
