<svg width="24" height="24" viewBox="0 0 24 24" fill="none" xmlns="http://www.w3.org/2000/svg">
<path fill-rule="evenodd" clip-rule="evenodd" d="M8 6C6.34315 6 5 7.34315 5 9V15C5 16.6569 6.34315 18 8 18H16C17.6569 18 19 16.6569 19 15V9C19 7.34315 17.6569 6 16 6H8ZM8.6 9.20006C8.15817 8.86869 7.53137 8.95823 7.2 9.40006C6.86863 9.84189 6.95817 10.4687 7.4 10.8001L11.4 13.8001C11.7556 14.0667 12.2444 14.0667 12.6 13.8001L16.6 10.8001C17.0418 10.4687 17.1314 9.84189 16.8 9.40006C16.4686 8.95823 15.8418 8.86869 15.4 9.20006L12 11.7501L8.6 9.20006Z" fill="#A5AECA"/>
</svg>
