<svg width="32" height="32" viewBox="0 0 32 32" fill="none" xmlns="http://www.w3.org/2000/svg">
<path d="M27.6664 16.2758C27.6664 15.46 27.5999 14.6399 27.4579 13.8374H16.0704V18.4584H22.5915C22.3209 19.9487 21.4514 21.2671 20.1783 22.1049V25.1032H24.0687C26.3533 23.0132 27.6664 19.9267 27.6664 16.2758Z" fill="#4285F4"/>
<path d="M16.0704 28.0001C19.3265 28.0001 22.0724 26.9374 24.0731 25.1032L20.1826 22.1048C19.1002 22.8368 17.7029 23.2512 16.0748 23.2512C12.9252 23.2512 10.2546 21.1392 9.29642 18.2996H5.28174V21.3905C7.33122 25.4427 11.5056 28.0001 16.0704 28.0001Z" fill="#34A853"/>
<path d="M9.29206 18.2995C8.78634 16.8091 8.78634 15.1953 9.29206 13.705V10.614H5.28181C3.56947 14.0048 3.56947 17.9996 5.28181 21.3904L9.29206 18.2995Z" fill="#FBBC04"/>
<path d="M16.0704 8.74893C17.7916 8.72247 19.4551 9.36623 20.7017 10.5479L24.1485 7.12188C21.966 5.08477 19.0692 3.9648 16.0704 4.00008C11.5056 4.00008 7.33122 6.55749 5.28174 10.6141L9.29198 13.705C10.2457 10.861 12.9207 8.74893 16.0704 8.74893Z" fill="#EA4335"/>
</svg>
