<svg width="24" height="24" viewBox="0 0 24 24" fill="none" xmlns="http://www.w3.org/2000/svg">
<path fill-rule="evenodd" clip-rule="evenodd" d="M14 8V10H10V8C10 6.89543 10.8954 6 12 6C13.1046 6 14 6.89543 14 8ZM8 10V8C8 5.79086 9.79086 4 12 4C14.2091 4 16 5.79086 16 8V10C17.1046 10 18 10.8954 18 12V18C18 19.1046 17.1046 20 16 20H8C6.89543 20 6 19.1046 6 18V12C6 10.8954 6.89543 10 8 10ZM11 14C11 13.4477 11.4477 13 12 13C12.5523 13 13 13.4477 13 14V16C13 16.5523 12.5523 17 12 17C11.4477 17 11 16.5523 11 16V14Z" fill="#A5AECA"/>
</svg>
