<svg width="48" height="48" viewBox="0 0 48 48" fill="none" xmlns="http://www.w3.org/2000/svg">
<circle cx="24" cy="24" r="24" fill="white"/>
<path d="M34.4051 25.752C34.0931 23.664 32.3171 22.176 30.3011 22.08C30.8051 20.208 32.0291 19.464 33.5171 19.032C33.6611 18.984 33.6371 18.84 33.6371 18.84L33.3971 17.352C33.3971 17.352 33.3731 17.232 33.1811 17.256C28.0451 17.832 24.5651 21.744 25.2131 26.496C25.8131 29.784 28.3811 31.056 30.7571 30.72C33.1331 30.336 34.7651 28.128 34.4051 25.752ZM18.8702 22.08C19.3502 20.208 20.6222 19.464 22.0862 19.032C22.2302 18.984 22.2062 18.84 22.2062 18.84L21.9902 17.352C21.9902 17.352 21.9662 17.232 21.7742 17.256C16.6142 17.832 13.1822 21.744 13.7822 26.496C14.4062 29.784 16.9982 31.056 19.3502 30.72C21.7262 30.336 23.3582 28.128 22.9742 25.752C22.6622 23.64 20.9102 22.152 18.8702 22.08Z" fill="#151C33"/>
</svg>
