<svg id="Layer_1" data-name="Layer 1" xmlns="http://www.w3.org/2000/svg" viewBox="0 0 530.75 81.61"><defs><style>.cls-1{fill:#342254;}.cls-2{fill:#e42328;}.cls-3{fill:#24a9e1;}.cls-4{fill:#c54d95;}.cls-5{fill:#f18c21;}.cls-6{fill:#aeca3b;}</style></defs><title>Artboard 1</title><path class="cls-1" d="M428.29,57.38c0-2.7,1.23-4,3.83-4s4,1.32,4,4-1.28,4-4,4S428.29,60.07,428.29,57.38Z"/><path class="cls-1" d="M440,49.44C440,40.61,446,36.36,453,36.36c4.73,0,7.14,1.65,7.14,2.64s-2,4.07-3,4.07c-.66,0-1.94-1.52-4.58-1.52-2.27,0-5.1,1.7-5.1,7.33,0,5,2.83,7.22,6.56,7.22s5.67-2,6.47-2a.61.61,0,0,1,.62.66,10.13,10.13,0,0,1-1,3.87c-.52,1-3.59,2.74-7.37,2.74C446.05,61.39,440,57.85,440,49.44Z"/><path class="cls-1" d="M463.15,48.78c0-8.41,5.81-12.42,12.47-12.42s12.47,4,12.47,12.42-5.85,12.56-12.47,12.56S463.15,57.24,463.15,48.78Zm17.43-.05c0-5.81-2.26-7.84-5-7.84s-5,2-5,7.84,2.31,7.84,5,7.84S480.58,54.54,480.58,48.73Z"/><path class="cls-1" d="M520.31,55.77V44.58a2.65,2.65,0,0,0-2.93-2.88c-2,0-4.25,1.89-4.25,3V59.79c0,.56-.61,1.13-3.5,1.13s-3.49-.57-3.49-1.13V44.67a2.82,2.82,0,0,0-3.07-3c-2,0-4.11,1.65-4.11,3V59.79c0,.56-.61,1.13-3.5,1.13S492,60.35,492,59.79V43.25c0-2-1.32-2.73-1.32-3.49,0-1.09,3.92-3.4,5.38-3.4s1.89,1,2.74,2.83A11.71,11.71,0,0,1,506,36.36a6.44,6.44,0,0,1,5.76,3.21,13.83,13.83,0,0,1,8.41-3.21c3.68,0,7.13,2.12,7.13,6V54.45c0,1.46.71,2,1.79,2h1c.51,0,.66.24.66.61,0,1.09-2.6,4.3-4.92,4.3C522.34,61.39,520.31,59.27,520.31,55.77Z"/><path class="cls-2" d="M36.24,80.18H2.09A2.09,2.09,0,0,1,0,78.09V70.47H38.33v7.62A2.08,2.08,0,0,1,36.24,80.18Z"/><path class="cls-1" d="M.41,58.64V8.33c0-2.52,7.74-5,17.92-5,14.81,0,24.32,7.58,24.32,20.28C42.65,39,32,46.36,19.59,46.36a30.85,30.85,0,0,1-6.73-.84V58.64c0,1-1.26,1.94-6.22,1.94S.41,59.65.41,58.64ZM18.92,36.26c6.23,0,10.35-3.61,10.35-12.2,0-7.91-3.79-10.93-10.86-10.93-3.7,0-5.55,1.59-5.55,3.28V33.23C12.86,34.92,14.46,36.26,18.92,36.26Z"/><path class="cls-1" d="M47,39c0-15,10.35-22.13,22.22-22.13S91.45,24,91.45,39,81,61.34,69.24,61.34,47,54,47,39Zm31-.09c0-10.35-4-14-8.83-14s-8.92,3.62-8.92,14,4.12,14,8.92,14S78.07,49.22,78.07,38.87Z"/><path class="cls-1" d="M96.5,47.71v-28c0-1.1,1.18-2,6.23-2s6.22.92,6.22,2V45.27c0,4.12,2.61,6.31,6.57,6.31s7.57-2.95,7.57-5.47V19.69c0-1.1,1.18-2,6.23-2s6.22.92,6.22,2V49.05c0,2.61,1.26,3.62,3.2,3.62h1.77c.92,0,1.17.42,1.17,1.09,0,2-4.62,7.66-8.66,7.66-3.12,0-5.72-2.61-7.07-4.12-.59-.68-.93-1.1-.93-1.1a21.79,21.79,0,0,1-14,5.22C103.23,61.42,96.5,56.2,96.5,47.71Z"/><path class="cls-1" d="M173.32,51.41V32.23c0-4-2.1-5.89-5.8-5.89-4,0-8.42,3.95-8.42,5.89V58.56c0,1-1.09,2-6.22,2s-6.23-1-6.23-2V29.11c0-3.62-2.35-4.88-2.35-6.22,0-1.94,7-6.06,9.59-6.06,2.18,0,3.11,1.51,4.37,4l.51,1a25,25,0,0,1,14.3-5.05c7.32,0,12.71,4.37,12.71,11.44V49.05c0,2.61,1.26,3.62,3.19,3.62h1.77c.92,0,1.18.42,1.18,1.09,0,1.94-4.71,7.66-8.75,7.66C176.94,61.42,173.32,57.63,173.32,51.41Z"/><path class="cls-1" d="M194.61,41.65c0-19.35,13.55-24.82,21.38-24.82a17.23,17.23,0,0,1,7,1.51V2c0-1.09,1.09-2,6.23-2s6.22.93,6.22,2v47c0,2.61,1.26,3.62,3.2,3.62h1.68c.93,0,1.26.42,1.26,1.09,0,2-4.79,7.66-8.75,7.66-5.05,0-8.16-4.29-8.16-4.29a18,18,0,0,1-11.78,4.29C203.87,61.42,194.61,55.45,194.61,41.65Zm28.27-13c0-1.6-1.85-3.2-4.54-3.2-4.79,0-10.35,3.53-10.35,15.31,0,9.09,4.55,12.2,8.67,12.2,3.53,0,6.22-2.61,6.22-4.71Z"/><path class="cls-1" d="M245.1,54c0-1.86,4.29-6.73,5.72-6.73,1.6,0,6.14,5.46,12.29,5.46,3,0,4.54-1.59,4.54-4,0-3.19-4.29-4.37-9-6.05-5.72-2.11-12-4.88-12-11.95,0-8.41,7.32-13.88,17.92-13.88,9.42,0,14,3.87,14,5.8s-4,6.73-5.72,6.73c-1.18,0-4.2-4.37-9.34-4.37-2.77,0-4.62,1.68-4.62,4,0,2.95,3.28,4,7.23,5.39,6.14,2,14,4.37,14,12.87s-7.24,14.22-17.25,14.22S245.1,55.78,245.1,54Z"/><path class="cls-1" d="M312.58,51.41V32.06c0-3.79-2.27-5.72-5.72-5.72-3.95,0-8.41,3.87-8.41,5.8V58.56c0,1-1.18,2-6.23,2s-6.23-1-6.23-2V2c0-1.09,1.1-2,6.23-2s6.23.93,6.23,2V21.54c3.11-2.86,8.58-4.71,13.8-4.71,7.15,0,12.78,4.46,12.78,11.36V49.05c0,2.61,1.27,3.62,3.29,3.62H330c.84,0,1.26.42,1.26,1.09,0,1.94-4.71,7.66-8.83,7.66C316.2,61.42,312.58,57.63,312.58,51.41Z"/><path class="cls-1" d="M333.87,39c0-15,10.35-22.13,22.21-22.13S378.3,24,378.3,39s-10.44,22.38-22.22,22.38S333.87,54,333.87,39Zm31.05-.09c0-10.35-4-14-8.84-14s-8.91,3.62-8.91,14,4.12,14,8.91,14S364.92,49.22,364.92,38.87Z"/><path class="cls-1" d="M385,79.59V29.11c0-3.62-2.36-4.88-2.36-6.22,0-1.94,6.9-6.06,9.51-6.06s3.45,1.85,5,5.05c.51-.59,5.47-5.05,11.61-5.05,9.09,0,16.92,6.48,16.92,20.27,0,16.92-9,24.32-19.52,24.32a22.66,22.66,0,0,1-8.67-2.1V79.59c0,1.1-1.18,2-6.23,2S385,80.69,385,79.59Zm27.51-41.31c0-10-3.95-12.37-8.33-12.37-3.7,0-6.73,3.29-6.73,4.72V49.14c0,2.1,2.69,4.46,5.89,4.46C408.25,53.6,412.46,49.14,412.46,38.28Z"/><path class="cls-3" d="M86.49,80.18H49.39a2.09,2.09,0,0,1-2.09-2.09V70.47H88.58v7.62A2.08,2.08,0,0,1,86.49,80.18Z"/><path class="cls-4" d="M136,80.18H100.38a2.08,2.08,0,0,1-2.09-2.09V70.47H138.1v7.62A2.09,2.09,0,0,1,136,80.18Z"/><path class="cls-5" d="M185.27,80.18H149.65a2.08,2.08,0,0,1-2.09-2.09V70.47h39.8v7.62A2.08,2.08,0,0,1,185.27,80.18Z"/><path class="cls-6" d="M234.79,80.18H199.16a2.09,2.09,0,0,1-2.09-2.09V70.47h39.81v7.62A2.09,2.09,0,0,1,234.79,80.18Z"/></svg>