<svg id="Layer_1" data-name="Layer 1" xmlns="http://www.w3.org/2000/svg" viewBox="0 0 530.75 176.6"><defs><style>.cls-1{fill:#342254;}.cls-2{fill:#e42328;}.cls-3{fill:#24a9e1;}.cls-4{fill:#c54d95;}.cls-5{fill:#f18c21;}.cls-6{fill:#aeca3b;}</style></defs><title>Artboard 1</title><path class="cls-1" d="M428.29,57.38c0-2.7,1.23-4,3.83-4s4,1.32,4,4-1.28,4-4,4S428.29,60.07,428.29,57.38Z"/><path class="cls-1" d="M440,49.44C440,40.61,446,36.36,453,36.36c4.73,0,7.14,1.65,7.14,2.64s-2,4.07-3,4.07c-.66,0-1.94-1.52-4.58-1.52-2.27,0-5.1,1.7-5.1,7.33,0,5,2.83,7.22,6.56,7.22s5.67-2,6.47-2a.61.61,0,0,1,.62.66,10.13,10.13,0,0,1-1,3.87c-.52,1-3.59,2.74-7.37,2.74C446.05,61.39,440,57.85,440,49.44Z"/><path class="cls-1" d="M463.15,48.78c0-8.41,5.81-12.42,12.47-12.42s12.47,4,12.47,12.42-5.85,12.56-12.47,12.56S463.15,57.24,463.15,48.78Zm17.43-.05c0-5.81-2.26-7.84-5-7.84s-5,2-5,7.84,2.31,7.84,5,7.84S480.58,54.54,480.58,48.73Z"/><path class="cls-1" d="M520.31,55.77V44.58a2.65,2.65,0,0,0-2.93-2.88c-2,0-4.25,1.89-4.25,3V59.79c0,.56-.61,1.13-3.5,1.13s-3.49-.57-3.49-1.13V44.67a2.82,2.82,0,0,0-3.07-3c-2,0-4.11,1.65-4.11,3V59.79c0,.56-.61,1.13-3.5,1.13S492,60.35,492,59.79V43.25c0-2-1.32-2.73-1.32-3.49,0-1.09,3.92-3.4,5.38-3.4s1.89,1,2.74,2.83A11.71,11.71,0,0,1,506,36.36a6.44,6.44,0,0,1,5.76,3.21,13.83,13.83,0,0,1,8.41-3.21c3.68,0,7.13,2.12,7.13,6V54.45c0,1.46.71,2,1.79,2h1c.51,0,.66.24.66.61,0,1.09-2.6,4.3-4.92,4.3C522.34,61.39,520.31,59.27,520.31,55.77Z"/><path class="cls-2" d="M36.24,80.18H2.09A2.09,2.09,0,0,1,0,78.09V70.47H38.33v7.62A2.08,2.08,0,0,1,36.24,80.18Z"/><path class="cls-1" d="M.41,58.64V8.33c0-2.52,7.74-5,17.92-5,14.81,0,24.32,7.58,24.32,20.28C42.65,39,32,46.36,19.59,46.36a30.85,30.85,0,0,1-6.73-.84V58.64c0,1-1.26,1.94-6.22,1.94S.41,59.65.41,58.64ZM18.92,36.26c6.23,0,10.35-3.61,10.35-12.2,0-7.91-3.79-10.93-10.86-10.93-3.7,0-5.55,1.59-5.55,3.28V33.23C12.86,34.92,14.46,36.26,18.92,36.26Z"/><path class="cls-1" d="M47,39c0-15,10.35-22.13,22.22-22.13S91.45,24,91.45,39,81,61.34,69.24,61.34,47,54,47,39Zm31-.09c0-10.35-4-14-8.83-14s-8.92,3.62-8.92,14,4.12,14,8.92,14S78.07,49.22,78.07,38.87Z"/><path class="cls-1" d="M96.5,47.71v-28c0-1.1,1.18-2,6.23-2s6.22.92,6.22,2V45.27c0,4.12,2.61,6.31,6.57,6.31s7.57-2.95,7.57-5.47V19.69c0-1.1,1.18-2,6.23-2s6.22.92,6.22,2V49.05c0,2.61,1.26,3.62,3.2,3.62h1.77c.92,0,1.17.42,1.17,1.09,0,2-4.62,7.66-8.66,7.66-3.12,0-5.72-2.61-7.07-4.12-.59-.68-.93-1.1-.93-1.1a21.79,21.79,0,0,1-14,5.22C103.23,61.42,96.5,56.2,96.5,47.71Z"/><path class="cls-1" d="M173.32,51.41V32.23c0-4-2.1-5.89-5.8-5.89-4,0-8.42,3.95-8.42,5.89V58.56c0,1-1.09,2-6.22,2s-6.23-1-6.23-2V29.11c0-3.62-2.35-4.88-2.35-6.22,0-1.94,7-6.06,9.59-6.06,2.18,0,3.11,1.51,4.37,4l.51,1a25,25,0,0,1,14.3-5.05c7.32,0,12.71,4.37,12.71,11.44V49.05c0,2.61,1.26,3.62,3.19,3.62h1.77c.92,0,1.18.42,1.18,1.09,0,1.94-4.71,7.66-8.75,7.66C176.94,61.42,173.32,57.63,173.32,51.41Z"/><path class="cls-1" d="M194.61,41.65c0-19.35,13.55-24.82,21.38-24.82a17.23,17.23,0,0,1,7,1.51V2c0-1.09,1.09-2,6.23-2s6.22.93,6.22,2v47c0,2.61,1.26,3.62,3.2,3.62h1.68c.93,0,1.26.42,1.26,1.09,0,2-4.79,7.66-8.75,7.66-5.05,0-8.16-4.29-8.16-4.29a18,18,0,0,1-11.78,4.29C203.87,61.42,194.61,55.45,194.61,41.65Zm28.27-13c0-1.6-1.85-3.2-4.54-3.2-4.79,0-10.35,3.53-10.35,15.31,0,9.09,4.55,12.2,8.67,12.2,3.53,0,6.22-2.61,6.22-4.71Z"/><path class="cls-1" d="M245.1,54c0-1.86,4.29-6.73,5.72-6.73,1.6,0,6.14,5.46,12.29,5.46,3,0,4.54-1.59,4.54-4,0-3.19-4.29-4.37-9-6.05-5.72-2.11-12-4.88-12-11.95,0-8.41,7.32-13.88,17.92-13.88,9.42,0,14,3.87,14,5.8s-4,6.73-5.72,6.73c-1.18,0-4.2-4.37-9.34-4.37-2.77,0-4.62,1.68-4.62,4,0,2.95,3.28,4,7.23,5.39,6.14,2,14,4.37,14,12.87s-7.24,14.22-17.25,14.22S245.1,55.78,245.1,54Z"/><path class="cls-1" d="M312.58,51.41V32.06c0-3.79-2.27-5.72-5.72-5.72-3.95,0-8.41,3.87-8.41,5.8V58.56c0,1-1.18,2-6.23,2s-6.23-1-6.23-2V2c0-1.09,1.1-2,6.23-2s6.23.93,6.23,2V21.54c3.11-2.86,8.58-4.71,13.8-4.71,7.15,0,12.78,4.46,12.78,11.36V49.05c0,2.61,1.27,3.62,3.29,3.62H330c.84,0,1.26.42,1.26,1.09,0,1.94-4.71,7.66-8.83,7.66C316.2,61.42,312.58,57.63,312.58,51.41Z"/><path class="cls-1" d="M333.87,39c0-15,10.35-22.13,22.21-22.13S378.3,24,378.3,39s-10.44,22.38-22.22,22.38S333.87,54,333.87,39Zm31.05-.09c0-10.35-4-14-8.84-14s-8.91,3.62-8.91,14,4.12,14,8.91,14S364.92,49.22,364.92,38.87Z"/><path class="cls-1" d="M385,79.59V29.11c0-3.62-2.36-4.88-2.36-6.22,0-1.94,6.9-6.06,9.51-6.06s3.45,1.85,5,5.05c.51-.59,5.47-5.05,11.61-5.05,9.09,0,16.92,6.48,16.92,20.27,0,16.92-9,24.32-19.52,24.32a22.66,22.66,0,0,1-8.67-2.1V79.59c0,1.1-1.18,2-6.23,2S385,80.69,385,79.59Zm27.51-41.31c0-10-3.95-12.37-8.33-12.37-3.7,0-6.73,3.29-6.73,4.72V49.14c0,2.1,2.69,4.46,5.89,4.46C408.25,53.6,412.46,49.14,412.46,38.28Z"/><path class="cls-3" d="M86.49,80.18H49.39a2.09,2.09,0,0,1-2.09-2.09V70.47H88.58v7.62A2.08,2.08,0,0,1,86.49,80.18Z"/><path class="cls-4" d="M136,80.18H100.38a2.08,2.08,0,0,1-2.09-2.09V70.47H138.1v7.62A2.09,2.09,0,0,1,136,80.18Z"/><path class="cls-5" d="M185.27,80.18H149.65a2.08,2.08,0,0,1-2.09-2.09V70.47h39.8v7.62A2.08,2.08,0,0,1,185.27,80.18Z"/><path class="cls-6" d="M234.79,80.18H199.16a2.09,2.09,0,0,1-2.09-2.09V70.47h39.81v7.62A2.09,2.09,0,0,1,234.79,80.18Z"/><path class="cls-1" d="M64.18,164.07c-.25,0-.89,0-1.9-.11a3.57,3.57,0,0,1-2.4-1.05.69.69,0,0,1-.22-.5c0-.44.6-.92,1.82-1.43a34.14,34.14,0,0,0,6.6-3.79,67.49,67.49,0,0,0,8.06-6.57A30.14,30.14,0,0,0,82,143.36a6.67,6.67,0,0,0,1-3.2,3.79,3.79,0,0,0-1-2.6A6.1,6.1,0,0,0,77.6,136c-.33,0-1.19.06-2.57.19A14.75,14.75,0,0,0,70,138a6.32,6.32,0,0,0-3.56,4.72,31.3,31.3,0,0,0-.55,5.16A28.31,28.31,0,0,0,66,151v.49c0,1.15-.59,1.71-1.77,1.71a2.57,2.57,0,0,1-1.49-.49,4.4,4.4,0,0,1-1.82-2.6,9.17,9.17,0,0,1-.22-2q0-1.71,2.48-16.79a37.64,37.64,0,0,0,.61-5c0-.56-.13-.83-.39-.83s-.68.37-1.27,1.1q-1.55,1.77-2.76,1.77a9.38,9.38,0,0,1-.94-.14c-.51-.09-.9-.78-1.16-2.07q0-1.55,3.26-4.17a42.54,42.54,0,0,1,8.34-5,24.53,24.53,0,0,1,10.43-2.82,6.31,6.31,0,0,1,5.86,3.26,3.47,3.47,0,0,1,.27,1.33q0,3.26-6.57,9.77c-1.84,1.91-2.76,3.06-2.76,3.42,0,.15.17.24.5.28a21.72,21.72,0,0,1,7.64,2.29q3.07,1.68,3.07,6.32a15,15,0,0,1-3.4,9.06,45,45,0,0,1-7.78,7.89,52.27,52.27,0,0,1-7.93,5.36A9.16,9.16,0,0,1,64.18,164.07Zm5-32.36c.52,0,1.59-.84,3.21-2.54a38.12,38.12,0,0,0,5.24-6.62,7.4,7.4,0,0,0,1.33-3.1q0-.66-.72-.66-4.75,0-8.56,6a5.78,5.78,0,0,0-.5,1.55,16.56,16.56,0,0,0-.6,3.92C68.55,131.23,68.75,131.71,69.15,131.71Z"/><path class="cls-1" d="M92.18,154.9a4,4,0,0,1-2.76-1.05,2.2,2.2,0,0,1-.61-1.65q1.26-11.26,2.43-18.61c.18-1,.73-1.55,1.65-1.55,2.25,0,3.37,1,3.37,3a5.75,5.75,0,0,1-.27,1.49,7.71,7.71,0,0,0-.33,2.1c0,.55.07.83.22.83s.24-.15.38-.45a8.35,8.35,0,0,1,4.53-4.08,4.9,4.9,0,0,1,2.1-.5,1.77,1.77,0,0,1,1.54,1,1.58,1.58,0,0,1,.34.88c0,.44-.43.86-1.27,1.27a4,4,0,0,0-.56.33q-6.57,5-8.61,14.36C93.92,154,93.21,154.9,92.18,154.9Z"/><path class="cls-1" d="M117.69,153.52a2.57,2.57,0,0,1-.78-.11q-4.36-1.38-4.36-6.51,0-1.83-.39-1.83s-.93,1.13-2.7,3.37q-1.48,1.94-2.87,3.51a3.84,3.84,0,0,1-2.82,1.57,4.55,4.55,0,0,1-4.42-4.47,6.19,6.19,0,0,1,.17-1.38,34,34,0,0,1,6.63-13.81q2.14-2.81,4.47-2.81a4.05,4.05,0,0,1,2.59.91c.78.61,1.16,1.13,1.16,1.57a2.1,2.1,0,0,1-.22,1.05c-.4.77-.84,1.16-1.32,1.16a2.35,2.35,0,0,1-1.22-.27,2,2,0,0,0-.77-.33c-.22,0-.52.25-.88.77a39.39,39.39,0,0,0-4.75,9.6,3.88,3.88,0,0,0-.33,1.16c0,.19.05.28.16.28.55,0,2.14-1.64,4.75-4.91q5-6.24,6.07-6.57a3.78,3.78,0,0,1,1-.17,2,2,0,0,1,.72.11,3.24,3.24,0,0,1,1.55,3.15,8.2,8.2,0,0,1-.28,2,30.14,30.14,0,0,0-1,7.07,10.5,10.5,0,0,0,.94,4.36,1.84,1.84,0,0,1,.22.72C119.07,153.26,118.61,153.52,117.69,153.52Z"/><path class="cls-1" d="M125.25,154.68a3.52,3.52,0,0,1-1.49-.33q-3-1.22-3-3.7a5.88,5.88,0,0,1,.11-1.21q1.61-7,3.1-14c.29-1.44.91-2.18,1.87-2.21a3.35,3.35,0,0,1,.94.16c1.51.48,2.28,1.27,2.32,2.38a5.29,5.29,0,0,1-.28,1.43,20.25,20.25,0,0,0-1.16,5.14c0,.4.08.6.23.6s.53-.36,1-1.1q3.65-5.13,6.69-8.83a4.41,4.41,0,0,1,3.09-2,3.24,3.24,0,0,1,1.6.44,3.77,3.77,0,0,1,1.88,3.42,6,6,0,0,1-.17,1.33q-2.53,10.44-2.54,13.53c0,1.87.13,2.94.39,3.2a2,2,0,0,1,.11.61.88.88,0,0,1-.44.69,1.66,1.66,0,0,1-.94.3,3.15,3.15,0,0,1-2.1-.88,6.32,6.32,0,0,1-2.21-4.86c0-2.8,0-4.54.11-5.22s.11-1.17.11-1.46,0-.33-.11-.33-2.21,3.46-6.07,10.38C127.37,153.85,126.35,154.68,125.25,154.68Z"/><path class="cls-1" d="M162.24,169.09h-.11c-1.4,0-2.7-1.69-3.92-5.08q-1.77-4.8-1.76-12.86,0-9.61.27-11.76c0-.22,0-.34-.11-.34s-.37.59-.77,1.77q-3.37,10.44-4.25,12.92c-1.15,3.24-2.58,4.86-4.31,4.86-2.47,0-4-1.32-4.69-4a20.74,20.74,0,0,1-.56-5,36,36,0,0,1,6.41-20.16,5.87,5.87,0,0,1,5.05-2.84q3.18,0,4.09-2.1a55,55,0,0,0,2-5.66l2.49-8.34c.48-1.61,1.14-2.44,2-2.48a6,6,0,0,1,1.21.11c1.51.37,2.28,1.09,2.32,2.15a19.61,19.61,0,0,1-.94,4.42q-2.26,7.56-3.53,12.7a87.88,87.88,0,0,0-2.27,21.26q0,.6,0,7.37t2.79,11a1.26,1.26,0,0,1,.66,1.16C164.34,168.76,163.64,169.05,162.24,169.09Zm-15-16c.34,0,.91-1.25,1.72-3.75s2.05-6,3.72-10.41,2.52-7.15,2.52-8.14c0-.44-.12-.66-.34-.66s-.68.31-1.27.93q-6.84,7.58-6.84,20.1v1.27C146.73,152.91,146.89,153.13,147.22,153.13Z"/><path class="cls-1" d="M168.87,154.79q-2.1,0-2.1-1.38c0-.48.68-1.38,2-2.71q2.76-2.64,2.76-4.08a2.53,2.53,0,0,0-.27-.88c-.19-.41-1.16-.76-2.93-1.05-2.94-.44-4.42-2.1-4.42-5a23.49,23.49,0,0,1,1.33-6.3q2.26-7.33,5.63-7.34a3.11,3.11,0,0,1,1,.16c1.51.48,2.27,1,2.27,1.66a3.21,3.21,0,0,1-.83,1.88,16.61,16.61,0,0,0-4.14,10.49c0,1.25,1,2,2.82,2.21q5.17.56,5.3,3.15v1.54c0,1-.89,2.34-2.65,4.14Q171.63,154.36,168.87,154.79Z"/><path class="cls-1" d="M205.42,168.43a3.11,3.11,0,0,1-1.33-.28,6.1,6.1,0,0,1-3.31-3,15.39,15.39,0,0,1-.94-6.27q0-2.27.28-6.24a10.4,10.4,0,0,0-.11-2.43c-.08,0-.28.24-.61.72a5.43,5.43,0,0,1-4.36,2.43,4.46,4.46,0,0,1-1.55-.28,5.06,5.06,0,0,1-3.53-5.08q0-14.24,2.54-14.41l.66.06q2.82.11,2.82,3.09-.22,4.53-.22,7c0,1.95.14,2.92.44,2.92.48,0,1.54-1.71,3.2-5,1-2,2.25-4.29,3.76-7a3,3,0,0,1,2.65-1.71,4.06,4.06,0,0,1,1.32.22,2.61,2.61,0,0,1,1.88,2.59,4.37,4.37,0,0,1-.11,1q-.89,2.87-2.1,8.72a70,70,0,0,0-1.66,13.64c0,3.09.56,5.3,1.66,6.62a2.43,2.43,0,0,1,.61,1.11,1.1,1.1,0,0,1-.39.77A2.36,2.36,0,0,1,205.42,168.43Z"/><path class="cls-1" d="M215.14,155a6.46,6.46,0,0,1-2.9-.88,6.12,6.12,0,0,1-2.68-3.37,8.22,8.22,0,0,1-.55-3.09,25.67,25.67,0,0,1,1.38-7.12,38.77,38.77,0,0,1,3.2-7.68,3.34,3.34,0,0,1,3-1.93q3.09,0,3.54,2.76a2.34,2.34,0,0,0,.77,1.16c1.54,1.47,2.32,3.64,2.32,6.51,0,.15,0,.93-.08,2.35a17.3,17.3,0,0,1-1.74,5.82,9.65,9.65,0,0,1-4.37,5A4.41,4.41,0,0,1,215.14,155Zm-.89-4.69a7.73,7.73,0,0,0,3-3.53,15.69,15.69,0,0,0,1.61-6.8,7.51,7.51,0,0,0-.78-3.53,9.47,9.47,0,0,0-2.21,3.7,24,24,0,0,0-1.82,8.39A6.37,6.37,0,0,0,214.25,150.32Z"/><path class="cls-1" d="M240.87,156.34h-.78a4.15,4.15,0,0,1-2.43-.61c-.95-.7-1.47-2.17-1.54-4.42a3.21,3.21,0,0,0-.28-1.32c-1.36,1.54-2.17,2.48-2.43,2.81a5.21,5.21,0,0,1-3.7,1.94l-1.21,0a5,5,0,0,1-2.85-1.21A4.09,4.09,0,0,1,224,150.1a55.36,55.36,0,0,1,.6-6.3,33.48,33.48,0,0,1,2.16-8.22c.84-2.14,2-3.24,3.31-3.32,1.55.26,2.34.94,2.37,2.05a4,4,0,0,1-.11,1q-.5,1.72-1.54,6.13a39.84,39.84,0,0,0-1.38,7.35c0,.44.07.66.22.66q1.09-.06,5.35-7a101.6,101.6,0,0,0,5-8.89,2.62,2.62,0,0,1,2.37-1.71,3.76,3.76,0,0,1,1.49.33,2.38,2.38,0,0,1,1.77,2.16,4.29,4.29,0,0,1-.22,1.38q-3.7,10.65-3.7,16.12a6.83,6.83,0,0,0,.25,2.15,4.11,4.11,0,0,1,.25,1.27c0,.08,0,.23,0,.47S241.75,156.23,240.87,156.34Z"/><path class="cls-1" d="M264.5,158.32a5.16,5.16,0,0,1-5.41-4,19.44,19.44,0,0,1-.78-5.9,60,60,0,0,1,2.35-14.77q2.34-8.93,4.67-17.81c.36-1.4,1.12-2.1,2.26-2.1a3.4,3.4,0,0,1,1.1.22,1.82,1.82,0,0,1,1.33,1.82,6,6,0,0,1-.22,1.44q-6.46,24.74-6.46,33.57c0,2.76.49,4.14,1.49,4.14q1.94,0,8.11-5.8s.06,0,.06,0a2.18,2.18,0,0,1,1.27-.61,1.17,1.17,0,0,1,.77.33,1,1,0,0,1,.39.83,2.47,2.47,0,0,1-.39,1.22Q270.63,158.32,264.5,158.32Z"/><path class="cls-1" d="M279.68,155a6.46,6.46,0,0,1-2.9-.88,6.21,6.21,0,0,1-2.68-3.37,8.42,8.42,0,0,1-.55-3.09,25.67,25.67,0,0,1,1.38-7.12,38.77,38.77,0,0,1,3.2-7.68,3.34,3.34,0,0,1,3-1.93c2.06,0,3.23.92,3.53,2.76a2.41,2.41,0,0,0,.77,1.16q2.32,2.2,2.32,6.51c0,.15,0,.93-.08,2.35a17.3,17.3,0,0,1-1.74,5.82,9.64,9.64,0,0,1-4.36,5A4.45,4.45,0,0,1,279.68,155Zm-.88-4.69a7.79,7.79,0,0,0,3-3.53,15.67,15.67,0,0,0,1.6-6.8,7.63,7.63,0,0,0-.77-3.53,9.35,9.35,0,0,0-2.21,3.7,23.75,23.75,0,0,0-1.82,8.39A6,6,0,0,0,278.8,150.32Z"/><path class="cls-1" d="M293.65,153.52l-1.1-.05a4.48,4.48,0,0,1-4-4.7V146a48.52,48.52,0,0,1,1.05-9.11,22.63,22.63,0,0,0,.39-2.54,7.07,7.07,0,0,1,.69-2.52,2,2,0,0,1,2-1c2,0,2.93.78,2.93,2.32l-.06.39a53.1,53.1,0,0,0-1.32,9.49c0,.56.07.83.22.83s.48-.42.88-1.27q3.15-6.67,4.69-9.55a2.49,2.49,0,0,1,2.21-1.54,3.3,3.3,0,0,1,1.71.44,1.76,1.76,0,0,1,1.16,1.54q0,.95-4.19,9.44c-3,6-4.75,9.23-5.3,9.81A2.67,2.67,0,0,1,293.65,153.52Z"/><path class="cls-1" d="M311.43,155.23q-8.4,0-8.4-7.78c0-.48.11-1.57.31-3.26a21.52,21.52,0,0,1,2.35-6.63q3.69-7.27,7.89-7.28a5.6,5.6,0,0,1,5.19,3.42,4.67,4.67,0,0,1,.55,2.21,6.24,6.24,0,0,1-.83,3q-4.74,7-8.94,9c-1,.48-1.49,1-1.49,1.49a2.17,2.17,0,0,0,.11.66c.33,1.18,1,1.77,2,1.77q2.2,0,5.91-2.71c1.61-1.17,2.77-2.08,3.47-2.7.89-.89,1.59-1.33,2.1-1.33a1.38,1.38,0,0,1,.78.28,1.8,1.8,0,0,1,.6,1.38,5.59,5.59,0,0,1-1.13,2.6,15.76,15.76,0,0,1-3.7,3.64,9.78,9.78,0,0,1-4.61,2.15A20.78,20.78,0,0,1,311.43,155.23Zm-2.1-11.59a9.69,9.69,0,0,0,2.76-3.48c1.32-2.43,2-3.94,2-4.53,0-.29-.19-.44-.55-.44a.72.72,0,0,0-.61.28q-4.14,7.07-4.14,7.62C308.78,143.38,309,143.56,309.33,143.64Z"/><path class="cls-1" d="M340.8,176.6l-1.38,0a4.38,4.38,0,0,1-4.09-4.09,32.33,32.33,0,0,1-.27-3.87A81.82,81.82,0,0,1,336.77,154a7,7,0,0,0,.17-1.44,3.18,3.18,0,0,0,0-.47c0-.13-.07-.35-.14-.66s-.57-.67-1.49-1.08-1.42-.9-1.49-1.49c0-.11,0-.36,0-.74s.52-.8,1.44-1.24a7,7,0,0,0,4.08-5.69q.56-3.59,1.94-9.06c.51-2.06,1-3.29,1.43-3.7a1.67,1.67,0,0,1,1.11-.33q2.7,0,2.7,2.16,0,1.82-1.93,8.89a9.45,9.45,0,0,0-.33,2.2c0,.89.28,1.33.83,1.33a11.6,11.6,0,0,0,2.43-.44,11.69,11.69,0,0,1,2.92-.44c.26,0,.62,0,1.08.05a3.8,3.8,0,0,1,1.9,1.22,2.41,2.41,0,0,1,1,1.76,1.87,1.87,0,0,1-.5,1.16,1.73,1.73,0,0,1-1.43.61,2.49,2.49,0,0,1-1.27-.39,3.79,3.79,0,0,0-2-.66,8.2,8.2,0,0,0-3.2.88c-.52.26-1.05.5-1.61.72a.43.43,0,0,0-.27.44,1.73,1.73,0,0,0,.16.78q2.32,4.63,2.32,12.92c0,1.51-.07,3.41-.22,5.71a16.48,16.48,0,0,1-1.93,6.71A4.71,4.71,0,0,1,340.8,176.6Zm-.39-4.36q.45-.06,1.72-7.29a57.33,57.33,0,0,0,1-9c-.19-2.17-.5-3.46-.94-3.87q-.17.18-.33.39a8.71,8.71,0,0,0-.44,2.15A111.72,111.72,0,0,0,340,170.86C340,171.78,340.12,172.24,340.41,172.24Z"/><path class="cls-1" d="M357.42,155a6.46,6.46,0,0,1-2.9-.88,6.21,6.21,0,0,1-2.68-3.37,8.22,8.22,0,0,1-.55-3.09,25.67,25.67,0,0,1,1.38-7.12,38.77,38.77,0,0,1,3.2-7.68,3.34,3.34,0,0,1,3-1.93c2.06,0,3.23.92,3.53,2.76a2.41,2.41,0,0,0,.77,1.16q2.32,2.2,2.32,6.51c0,.15,0,.93-.08,2.35a17.3,17.3,0,0,1-1.74,5.82,9.68,9.68,0,0,1-4.36,5A4.45,4.45,0,0,1,357.42,155Zm-.88-4.69a7.79,7.79,0,0,0,3-3.53,15.81,15.81,0,0,0,1.6-6.8,7.63,7.63,0,0,0-.77-3.53,9.35,9.35,0,0,0-2.21,3.7,23.75,23.75,0,0,0-1.82,8.39A6,6,0,0,0,356.54,150.32Z"/><path class="cls-1" d="M369.68,154.9a4,4,0,0,1-2.76-1.05,2.2,2.2,0,0,1-.61-1.65q1.26-11.26,2.43-18.61c.18-1,.73-1.55,1.65-1.55,2.25,0,3.37,1,3.37,3a5.75,5.75,0,0,1-.27,1.49,7.71,7.71,0,0,0-.33,2.1c0,.55.07.83.22.83s.23-.15.38-.45a8.35,8.35,0,0,1,4.53-4.08,4.9,4.9,0,0,1,2.1-.5,1.77,1.77,0,0,1,1.54,1,1.66,1.66,0,0,1,.34.88c0,.44-.43.86-1.27,1.27a4,4,0,0,0-.56.33q-6.57,5-8.61,14.36C371.42,154,370.71,154.9,369.68,154.9Z"/><path class="cls-1" d="M397.78,158.32a5.16,5.16,0,0,1-5.41-4,19.46,19.46,0,0,1-.77-5.9,60.4,60.4,0,0,1,2.34-14.77q2.35-8.93,4.67-17.81c.37-1.4,1.12-2.1,2.26-2.1a3.51,3.51,0,0,1,1.11.22,1.82,1.82,0,0,1,1.32,1.82,5.55,5.55,0,0,1-.22,1.44q-6.46,24.74-6.46,33.57c0,2.76.5,4.14,1.49,4.14q1.93,0,8.12-5.8s0,0,0,0a2.18,2.18,0,0,1,1.27-.61,1.21,1.21,0,0,1,.78.33,1.07,1.07,0,0,1,.38.83,2.55,2.55,0,0,1-.38,1.22Q403.91,158.32,397.78,158.32Z"/><path class="cls-1" d="M414.56,155.23q-8.38,0-8.39-7.78c0-.48.1-1.57.31-3.26a21.71,21.71,0,0,1,2.34-6.63q3.71-7.27,7.9-7.28a5.6,5.6,0,0,1,5.19,3.42,4.67,4.67,0,0,1,.55,2.21,6.35,6.35,0,0,1-.83,3c-3.16,4.67-6.15,7.67-8.94,9-1,.48-1.49,1-1.49,1.49a1.91,1.91,0,0,0,.11.66q.49,1.77,2,1.77,2.22,0,5.91-2.71c1.62-1.17,2.78-2.08,3.48-2.7.88-.89,1.58-1.33,2.1-1.33a1.35,1.35,0,0,1,.77.28,1.78,1.78,0,0,1,.61,1.38,5.59,5.59,0,0,1-1.13,2.6,16,16,0,0,1-3.7,3.64,9.78,9.78,0,0,1-4.61,2.15A21,21,0,0,1,414.56,155.23Zm-2.09-11.59a9.9,9.9,0,0,0,2.76-3.48c1.32-2.43,2-3.94,2-4.53,0-.29-.19-.44-.56-.44a.7.7,0,0,0-.6.28q-4.15,7.07-4.15,7.62C411.91,143.38,412.1,143.56,412.47,143.64Z"/><path class="cls-1" d="M429.2,154.79q-2.1,0-2.1-1.38c0-.48.68-1.38,2-2.71q2.76-2.64,2.76-4.08a2.53,2.53,0,0,0-.27-.88c-.19-.41-1.16-.76-2.93-1.05q-4.43-.66-4.42-5a23.1,23.1,0,0,1,1.33-6.3q2.26-7.33,5.63-7.34a3.11,3.11,0,0,1,1,.16c1.51.48,2.27,1,2.27,1.66a3.21,3.21,0,0,1-.83,1.88,16.61,16.61,0,0,0-4.14,10.49c0,1.25,1,2,2.81,2.21q5.19.56,5.3,3.15v1.54q0,1.44-2.65,4.14Q432,154.36,429.2,154.79Z"/><path class="cls-1" d="M442.56,154.79q-2.1,0-2.1-1.38c0-.48.68-1.38,2-2.71q2.76-2.64,2.76-4.08a2.53,2.53,0,0,0-.27-.88c-.19-.41-1.16-.76-2.93-1.05-2.94-.44-4.42-2.1-4.42-5a23.49,23.49,0,0,1,1.33-6.3q2.26-7.33,5.63-7.34a3.21,3.21,0,0,1,1,.16c1.5.48,2.26,1,2.26,1.66a3.21,3.21,0,0,1-.83,1.88,16.61,16.61,0,0,0-4.14,10.49c0,1.25,1,2,2.82,2.21,3.46.37,5.22,1.42,5.3,3.15v1.54c0,1-.89,2.34-2.65,4.14Q445.31,154.36,442.56,154.79Z"/></svg>